# xmcd
#
# Track frame offsets: 
#        150
#        18743
#        34242
#        50535
#        67868
#        82189
#        98331
#        112844
#        131922
#        151754
#        172139
#        187300
#        204972
#        223433
#        240676
#        258352
#        274340
#        290713
#        308571
#
# Disc length: 4307 seconds
#
# Revision: 2
# Processed by: cddbd v1.5.2PL0 Copyright (c) Steve Scherf et al.
# Submitted via: ExactAudioCopy v0.99pb5
#
DISCID=1e10d113
DTITLE=Gina Jeffreys - Best Of ... So Far
DYEAR=2002
DGENRE=Country
TTITLE0=Angel
TTITLE1=Dancin' With Elvis
TTITLE2=Fool Like That
TTITLE3=Just Like The Moon
TTITLE4=Different Drum
TTITLE5=Through The Eyes Of A Child
TTITLE6=Girls' Night Out
TTITLE7=That'll Be Me
TTITLE8=Somebody's Daughter
TTITLE9=I Haven't Got A Heart
TTITLE10=Break My Heart
TTITLE11=Didn't We Shine
TTITLE12=Rocking Chair
TTITLE13=Standing Too Close To The Flame
TTITLE14=Josephine
TTITLE15=Two Stars Fell
TTITLE16=Men
TTITLE17=Slippin' Away
TTITLE18=Creep (Live)
EXTD=
EXTT0=
EXTT1=
EXTT2=
EXTT3=
EXTT4=
EXTT5=
EXTT6=
EXTT7=
EXTT8=
EXTT9=
EXTT10=
EXTT11=
EXTT12=
EXTT13=
EXTT14=
EXTT15=
EXTT16=
EXTT17=
EXTT18=
PLAYORDER=
